<svg xmlns="http://www.w3.org/2000/svg" xmlns:xlink="http://www.w3.org/1999/xlink" version="1.1" x="0px" y="0px" viewBox="0 0 100 125" style="enable-background:new 0 0 100 100;" xml:space="preserve"><path d="M50,98.4c-26.4,0-47.9-21.5-47.9-47.9S23.6,2.5,50,2.5c26.4,0,47.9,21.5,47.9,47.9S76.4,98.4,50,98.4z   M50,6.5C25.8,6.5,6.1,26.2,6.1,50.4S25.8,94.4,50,94.4s43.9-19.7,43.9-43.9S74.2,6.5,50,6.5z"/><path d="M30.8,30.6c-4.6,0-8.4,3.8-8.4,8.4s3.8,8.4,8.4,8.4c4.6,0,8.4-3.8,8.4-8.4S35.4,30.6,30.8,30.6z M33.7,38.8  c-1.3,0-2.4-1.1-2.4-2.4s1.1-2.4,2.4-2.4s2.4,1.1,2.4,2.4S35,38.8,33.7,38.8z"/><path d="M66.3,31.3c-4.4,0-8,3.6-8,8c0,4.4,3.6,8,8,8s8-3.6,8-8C74.4,34.9,70.7,31.3,66.3,31.3z M65.2,39.5  c-1.3,0-2.4-1.1-2.4-2.4s1.1-2.4,2.4-2.4s2.4,1.1,2.4,2.4S66.5,39.5,65.2,39.5z"/><path d="M67.5,58.2c-0.9-0.6-2.2-0.4-2.8,0.5c-2,3-4.1,4.6-6.1,4.5c-3,0-5.8-3.4-6.6-4.7c-0.6-0.9-1.8-1.2-2.8-0.6  c-0.3,0.2-0.6,0.5-0.7,0.8c-2,3-4.1,4.5-6.1,4.5c-3,0-5.8-3.4-6.6-4.7c-0.6-0.9-1.8-1.2-2.8-0.6c-0.9,0.6-1.2,1.8-0.6,2.8  c0.2,0.3,4.1,6.5,9.9,6.6c0,0,0.1,0,0.1,0c2.8,0,5.5-1.5,7.9-4.3c1.7,1.9,4.6,4.3,8.1,4.3c0,0,0.1,0,0.1,0c3.4,0,6.6-2.1,9.4-6.2  C68.6,60.1,68.4,58.8,67.5,58.2z"/><text x="0" y="115" fill="#000000" font-size="5px" font-weight="bold" font-family="'Helvetica Neue', Helvetica, Arial-Unicode, Arial, Sans-serif">Created by Aneeque Ahmed</text><text x="0" y="120" fill="#000000" font-size="5px" font-weight="bold" font-family="'Helvetica Neue', Helvetica, Arial-Unicode, Arial, Sans-serif">from the Noun Project</text></svg>