<?xml version="1.0" standalone="no"?>
<!DOCTYPE svg PUBLIC "-//W3C//DTD SVG 20010904//EN"
 "http://www.w3.org/TR/2001/REC-SVG-20010904/DTD/svg10.dtd">
<svg version="1.0" xmlns="http://www.w3.org/2000/svg"
 width="4096.000000pt" height="4096.000000pt" viewBox="0 0 4096.000000 4096.000000"
 preserveAspectRatio="xMidYMid meet">
<metadata>
Created by potrace 1.14, written by Peter Selinger 2001-2017
</metadata>
<g transform="translate(0.000000,4096.000000) scale(0.100000,-0.100000)"
fill="#000000" stroke="none">
<path d="M35512 39526 c-145 -37 -333 -157 -522 -335 -54 -51 -912 -733 -931
-739 -11 -4 -17 2 -112 121 -195 243 -334 343 -494 351 -180 9 -347 -93 -589
-360 -105 -116 -183 -203 -209 -232 -11 -13 -31 -36 -45 -51 -87 -94 -192
-212 -237 -269 -56 -70 -166 -248 -197 -317 -9 -22 -21 -49 -26 -60 -39 -86
-88 -252 -109 -370 -14 -74 -20 -180 -26 -400 -3 -145 -14 -245 -39 -365 -8
-38 -52 -181 -66 -215 -7 -16 -19 -46 -27 -65 -46 -114 -141 -271 -228 -379
-111 -138 -194 -213 -465 -418 -154 -117 -321 -245 -371 -285 -19 -15 -104
-82 -189 -149 -85 -67 -168 -132 -185 -146 -16 -13 -37 -30 -45 -36 -112 -88
-185 -146 -345 -276 -104 -84 -208 -167 -229 -185 -81 -65 -342 -279 -375
-307 -19 -16 -53 -44 -75 -62 -32 -26 -247 -205 -331 -275 -11 -9 -47 -39 -80
-67 -33 -27 -62 -52 -65 -55 -3 -3 -30 -25 -60 -49 -30 -24 -62 -51 -70 -60
-8 -9 -38 -34 -65 -56 -28 -21 -52 -42 -55 -45 -5 -5 -263 -225 -285 -242 -5
-5 -22 -18 -36 -31 -14 -12 -52 -44 -84 -72 -33 -27 -82 -70 -111 -95 -28 -25
-77 -68 -110 -96 -224 -193 -520 -449 -524 -454 -3 -3 -54 -48 -115 -100 -60
-52 -115 -99 -121 -105 -6 -5 -29 -26 -50 -45 -22 -19 -93 -82 -159 -140 -66
-58 -126 -111 -134 -118 -7 -7 -65 -59 -129 -115 -64 -56 -124 -109 -133 -117
-67 -62 -111 -101 -234 -211 -77 -68 -145 -128 -151 -134 -46 -41 -177 -160
-214 -194 l-45 -41 -105 108 c-58 59 -136 141 -175 182 -93 100 -248 269 -275
300 -12 14 -37 42 -56 62 -49 53 -263 298 -352 403 -254 298 -605 741 -769
970 -40 55 -76 105 -82 111 -9 11 -325 491 -348 529 -7 11 -45 74 -85 140 -40
66 -78 129 -84 140 -34 65 -78 141 -84 150 -26 36 -272 517 -330 645 -24 52
-61 133 -82 180 -22 47 -66 150 -99 230 -33 80 -64 155 -69 168 -15 33 -23 54
-80 197 -29 72 -58 144 -65 160 -7 17 -43 102 -80 190 -38 88 -86 198 -107
243 -21 46 -38 86 -38 88 0 2 -27 60 -60 130 -33 69 -60 128 -60 130 0 2 -56
117 -125 256 -177 361 -326 644 -500 948 -33 58 -133 207 -159 237 -12 13 -13
15 -66 83 -140 178 -432 445 -587 535 -18 11 -33 23 -33 27 0 4 -5 8 -11 8 -6
0 -23 8 -37 19 -61 43 -278 153 -387 196 -38 15 -83 33 -100 40 -90 39 -404
120 -540 140 -22 3 -56 8 -75 11 -19 3 -46 7 -60 9 -109 20 -590 28 -745 12
-194 -19 -295 -35 -442 -67 l-92 -20 -107 26 c-124 30 -122 29 -194 39 -30 4
-64 9 -75 12 -11 3 -105 6 -210 8 -224 3 -318 -6 -522 -51 -641 -142 -1292
-588 -1867 -1279 -173 -208 -360 -472 -447 -630 -275 -503 -431 -839 -664
-1430 -68 -171 -234 -671 -280 -840 -9 -33 -20 -73 -25 -90 -35 -129 -103
-397 -120 -475 -12 -52 -23 -102 -25 -110 -5 -23 -34 -162 -39 -190 -24 -128
-47 -250 -51 -275 -3 -16 -7 -41 -10 -55 -11 -59 -43 -276 -61 -410 -2 -19 -7
-51 -9 -70 -3 -19 -7 -62 -10 -95 -4 -33 -8 -67 -10 -75 -2 -8 -7 -53 -11
-100 -3 -47 -8 -98 -10 -115 -2 -16 -6 -75 -9 -130 -4 -55 -8 -111 -11 -125
-19 -122 -26 -1058 -10 -1355 4 -88 10 -185 11 -215 3 -60 15 -197 20 -245 2
-16 6 -66 10 -110 6 -78 12 -139 20 -200 2 -16 7 -57 10 -90 4 -33 8 -71 10
-85 2 -14 7 -47 10 -75 7 -63 14 -113 20 -146 3 -14 7 -41 9 -60 8 -59 45
-290 60 -374 8 -44 17 -96 21 -115 13 -73 77 -388 95 -465 10 -45 21 -92 24
-105 98 -461 312 -1171 514 -1700 94 -247 92 -240 56 -241 -16 0 -38 -2 -49
-4 -11 -2 -40 -7 -65 -10 -25 -3 -52 -8 -60 -10 -8 -2 -31 -7 -50 -10 -169
-28 -433 -128 -624 -236 -75 -42 -248 -158 -266 -179 -3 -3 -23 -18 -45 -35
-63 -47 -250 -232 -335 -330 -76 -89 -206 -261 -245 -326 -11 -18 -25 -40 -30
-49 -212 -323 -419 -857 -515 -1324 -11 -54 -23 -110 -25 -125 -3 -14 -8 -37
-11 -51 -32 -161 -120 -374 -222 -538 -88 -142 -235 -309 -357 -407 -28 -22
-56 -46 -64 -53 -27 -25 -237 -179 -311 -227 -92 -60 -125 -95 -140 -150 -29
-102 13 -173 150 -255 123 -73 572 -335 630 -368 25 -14 101 -58 170 -99 69
-41 136 -80 150 -88 15 -8 24 -22 23 -33 -1 -10 -25 -67 -53 -126 -27 -59 -50
-109 -50 -111 0 -2 -20 -45 -43 -97 -24 -51 -72 -156 -106 -233 -35 -77 -72
-160 -83 -185 -12 -25 -31 -67 -43 -95 -13 -27 -41 -89 -64 -138 -22 -48 -41
-89 -41 -91 0 -2 -20 -46 -44 -97 -24 -52 -98 -213 -164 -359 -66 -146 -131
-290 -145 -320 -14 -30 -35 -77 -47 -105 -13 -27 -37 -81 -55 -120 -39 -84
-76 -164 -111 -242 -14 -32 -36 -80 -49 -108 -13 -27 -58 -126 -100 -220 -103
-226 -126 -275 -130 -275 -2 0 -70 32 -152 71 -81 39 -200 96 -263 126 -63 30
-176 85 -250 120 -74 36 -171 82 -215 103 -44 21 -161 77 -260 125 -99 48
-220 106 -270 130 -49 24 -162 78 -250 120 -88 42 -196 94 -240 115 -44 21
-147 70 -230 111 -82 40 -152 73 -155 74 -9 2 -111 51 -305 145 -104 51 -230
111 -280 135 -49 23 -180 87 -290 140 -110 54 -236 115 -280 135 -279 132
-416 201 -411 208 3 5 8 31 12 58 3 27 8 58 10 69 2 11 6 34 9 50 3 17 8 44
11 60 3 17 8 84 10 150 5 114 13 158 81 444 8 36 16 72 18 80 2 9 18 77 35
151 17 74 33 142 35 150 2 8 13 56 25 105 12 50 25 108 30 130 5 22 22 96 39
165 16 69 32 139 35 157 4 18 11 45 17 60 6 15 10 29 9 31 -2 4 8 52 42 192
16 69 31 134 34 144 4 24 24 109 75 321 20 88 51 221 69 295 65 286 59 268 98
292 162 100 375 317 504 513 42 64 108 186 108 199 0 7 4 16 9 21 22 23 99
242 118 335 34 167 41 245 38 425 -2 105 -6 206 -10 225 -47 263 -127 480
-249 675 -90 143 -120 179 -271 330 -313 314 -725 489 -1175 500 -411 10 -773
-105 -1110 -353 -150 -111 -334 -314 -438 -484 -114 -186 -214 -455 -237 -638
-3 -25 -9 -76 -14 -115 -9 -73 -7 -283 4 -370 34 -277 144 -572 293 -785 45
-64 106 -143 129 -168 6 -7 10 -20 8 -30 -2 -15 -7 -60 -20 -202 -2 -19 -6
-69 -9 -110 -4 -41 -9 -91 -11 -110 -2 -19 -7 -66 -10 -105 -3 -38 -8 -90 -10
-115 -2 -25 -7 -74 -10 -110 -3 -36 -8 -85 -10 -110 -3 -25 -7 -70 -10 -100
-10 -109 -16 -176 -20 -220 -5 -46 -10 -96 -20 -210 -3 -36 -7 -85 -10 -110
-3 -25 -7 -70 -10 -100 -4 -54 -15 -180 -20 -230 -2 -14 -3 -41 -4 -62 -1 -34
-4 -38 -75 -77 -137 -75 -270 -195 -351 -317 -94 -141 -145 -286 -170 -484 -3
-25 -7 -61 -10 -80 -3 -19 -7 -55 -10 -80 -4 -25 -8 -56 -10 -70 -2 -14 -7
-52 -11 -85 -3 -33 -8 -68 -10 -79 -2 -10 -6 -44 -9 -75 -4 -31 -8 -63 -10
-71 -2 -8 -7 -40 -10 -70 -3 -30 -8 -66 -10 -80 -6 -40 -14 -99 -25 -190 -5
-47 -12 -94 -14 -105 -2 -11 -7 -49 -10 -85 -4 -36 -11 -90 -16 -120 -5 -30
-12 -80 -15 -110 -3 -30 -10 -82 -15 -115 -52 -346 -15 -566 136 -801 62 -99
156 -196 257 -268 60 -43 71 -55 69 -77 -2 -12 -13 -134 -17 -194 -3 -33 -8
-76 -10 -95 -3 -19 -7 -68 -10 -109 -3 -40 -7 -90 -10 -110 -4 -44 -14 -139
-20 -206 -2 -27 -7 -81 -11 -120 -22 -239 9 -387 114 -543 90 -132 255 -247
410 -287 145 -37 341 -18 471 46 215 105 346 276 402 524 6 28 12 57 15 65 2
8 12 53 23 100 10 47 28 123 39 170 18 74 150 638 156 665 31 140 41 170 66
199 26 29 29 30 47 15 37 -33 334 -277 448 -369 64 -52 122 -100 129 -105 6
-6 51 -42 101 -80 49 -39 99 -78 110 -87 112 -94 676 -516 985 -736 118 -84
223 -160 233 -168 9 -8 21 -14 25 -14 4 0 19 -10 34 -23 66 -56 666 -449 933
-610 91 -56 421 -246 495 -285 36 -20 100 -55 142 -78 236 -129 754 -367 928
-425 14 -4 55 -19 92 -32 l67 -25 18 25 c10 13 83 106 163 206 80 100 195 245
256 322 202 256 436 550 464 585 15 19 92 116 171 215 165 208 408 514 449
565 16 19 51 64 80 100 28 36 56 72 63 80 7 8 46 58 87 110 41 52 77 97 80
100 3 3 27 34 55 70 27 36 57 74 67 85 15 18 169 212 481 605 54 69 115 145
136 169 20 24 42 54 50 65 8 12 17 23 21 26 5 5 64 78 294 369 54 68 107 133
117 145 10 11 24 29 31 39 12 17 18 10 58 -69 52 -104 113 -210 166 -285 44
-64 117 -162 124 -169 3 -3 27 -34 54 -70 83 -110 158 -287 185 -430 9 -50 6
-303 -5 -385 -12 -100 -10 -251 6 -315 8 -30 15 -57 15 -60 18 -69 62 -163
114 -240 43 -62 146 -164 209 -207 37 -24 50 -38 44 -46 -6 -7 -24 -39 -42
-72 -84 -156 -109 -200 -193 -340 -128 -212 -373 -575 -479 -710 -64 -82 -279
-347 -299 -370 -160 -182 -228 -255 -379 -405 -179 -178 -218 -216 -350 -330
-41 -36 -77 -68 -80 -71 -3 -3 -63 -52 -135 -108 -71 -56 -137 -108 -145 -115
-52 -41 -250 -179 -358 -250 -316 -206 -503 -300 -952 -477 -69 -27 -134 -54
-145 -59 -119 -53 -752 -263 -1010 -335 -74 -20 -278 -75 -295 -79 -263 -61
-410 -113 -539 -191 -179 -108 -332 -270 -435 -459 -33 -61 -92 -212 -101
-259 -2 -10 -6 -26 -9 -35 -3 -9 -8 -39 -12 -67 -3 -27 -8 -59 -10 -70 -6 -29
-5 -246 1 -275 2 -13 7 -42 10 -63 8 -54 49 -192 74 -249 l20 -47 -102 -52
c-207 -104 -514 -282 -737 -427 -264 -170 -690 -475 -799 -571 -13 -12 -27
-21 -30 -21 -3 0 -22 -15 -41 -33 -19 -17 -53 -45 -75 -62 -48 -35 -192 -179
-256 -255 -179 -214 -326 -532 -364 -791 -4 -24 -10 -63 -15 -87 -9 -48 -6
-380 4 -427 3 -16 11 -57 17 -90 15 -82 69 -268 80 -279 5 -6 9 -16 9 -23 0
-36 168 -342 210 -383 3 -3 22 -28 44 -56 64 -86 215 -228 341 -322 100 -73
309 -181 484 -248 64 -25 152 -59 196 -76 265 -102 514 -267 730 -483 140
-140 201 -219 351 -454 172 -270 281 -409 470 -597 181 -179 385 -335 605
-459 99 -57 287 -146 344 -165 22 -7 45 -16 50 -20 30 -21 385 -124 500 -144
17 -3 41 -8 55 -11 57 -11 77 -14 120 -20 25 -3 54 -7 65 -9 12 -2 52 -7 90
-10 39 -4 90 -9 115 -11 25 -3 126 -7 225 -10 171 -4 267 -10 345 -21 399 -54
798 -217 1100 -448 66 -51 197 -161 215 -181 49 -53 291 -234 449 -334 93 -59
311 -175 401 -213 22 -9 58 -25 80 -34 22 -9 94 -36 160 -59 l120 -42 132
-464 c72 -255 152 -534 177 -619 46 -156 225 -782 232 -810 4 -19 32 -115 83
-295 92 -325 132 -467 164 -577 18 -64 35 -120 38 -123 7 -6 6310 -7 6316 -1
3 2 15 44 28 93 13 48 35 127 49 175 14 48 30 105 35 125 5 21 42 151 81 288
39 138 73 257 75 265 2 8 14 49 25 90 11 41 23 82 25 90 2 8 15 56 30 105 14
50 32 113 39 140 8 28 25 91 40 140 32 112 80 283 111 395 35 128 195 697 263
935 34 116 90 316 127 445 36 129 87 309 112 399 l47 164 175 -6 c97 -4 192
-9 211 -11 86 -12 140 -18 305 -31 65 -5 405 -5 470 0 178 13 225 19 387 46
426 71 877 254 1208 490 115 82 200 139 206 139 4 0 15 6 23 14 24 20 175 98
271 138 124 53 274 101 380 122 14 3 36 7 50 10 13 3 42 8 65 11 22 3 47 8 55
10 15 4 103 12 220 20 82 6 171 15 190 20 8 2 35 7 60 10 25 4 65 11 90 17 25
5 54 11 65 14 11 2 67 17 125 33 297 84 603 240 855 436 121 95 132 105 249
221 132 132 149 150 310 354 119 150 258 292 381 389 123 97 129 101 225 158
47 28 137 81 200 119 468 280 844 703 1060 1194 61 138 116 297 156 445 33
128 80 378 89 479 26 295 26 597 0 726 -3 14 -8 41 -11 60 -8 54 -43 177 -75
263 -120 325 -358 627 -649 822 -74 49 -340 186 -495 254 -27 13 -57 26 -65
30 -15 8 -253 109 -420 179 -188 78 -567 211 -840 293 -90 28 -166 51 -167 53
-1 1 2 19 8 40 51 184 49 482 -5 694 -3 12 -8 31 -11 42 -9 43 -49 148 -84
225 -126 271 -333 501 -586 650 -41 25 -77 45 -79 45 -2 0 -30 12 -62 27 -33
15 -61 28 -64 28 -3 1 -41 13 -86 27 -181 59 -257 66 -784 73 -495 7 -541 9
-875 40 -44 4 -82 8 -85 10 -3 2 -29 6 -59 10 -52 6 -67 9 -121 20 -14 2 -36
6 -50 9 -78 13 -119 22 -255 56 -188 48 -472 141 -590 194 -16 8 -64 28 -105
46 -227 99 -505 256 -720 407 -67 48 -85 67 -62 69 4 0 32 4 62 9 30 5 62 9
70 10 8 1 31 5 50 8 34 7 272 50 339 62 19 3 112 22 205 41 94 19 180 36 191
38 31 6 255 55 305 67 25 6 54 13 65 15 11 2 154 37 317 78 536 135 965 263
1523 456 117 41 287 123 340 164 157 123 248 221 324 351 44 76 101 194 105
219 1 6 4 16 8 21 3 6 16 57 29 115 30 138 32 345 5 475 -4 20 -26 163 -31
200 -8 55 -16 113 -20 135 -3 14 -7 42 -10 64 -5 43 -13 102 -21 161 -11 80
-13 91 -19 150 -3 33 -7 71 -10 85 -2 14 -7 52 -10 85 -3 33 -8 71 -10 85 -2
14 -6 54 -9 90 -4 36 -8 76 -10 90 -2 14 -7 59 -11 100 -3 41 -8 91 -10 110
-2 19 -6 67 -10 105 -3 39 -8 88 -10 110 -2 22 -7 76 -10 120 -3 44 -8 100
-10 125 -3 36 -16 230 -17 250 -1 18 3 24 10 15 4 -5 34 -32 67 -60 33 -27 62
-52 65 -55 3 -3 104 -89 225 -190 121 -101 222 -187 225 -190 3 -3 45 -39 95
-80 49 -41 137 -115 195 -164 58 -49 128 -108 155 -131 28 -24 97 -82 155
-131 58 -49 113 -96 124 -104 10 -8 39 -33 63 -55 25 -22 55 -47 67 -55 12 -8
26 -19 32 -25 19 -18 226 -193 648 -548 60 -51 114 -96 120 -102 10 -8 59 -50
157 -132 14 -12 37 -1 180 85 194 116 276 167 384 237 44 28 98 62 120 75 22
14 45 28 50 32 6 5 91 63 190 130 99 67 205 140 237 162 31 23 66 48 78 56 12
8 50 35 84 60 33 25 104 76 156 114 52 38 97 72 100 75 3 3 41 33 85 65 44 33
82 62 85 65 3 4 23 19 45 36 22 16 42 32 45 35 3 3 37 30 75 60 136 105 611
505 676 569 9 9 54 50 100 91 161 144 236 217 534 515 336 335 467 474 660
695 27 30 51 57 54 60 4 3 35 39 69 80 35 41 74 86 86 100 113 129 404 492
441 550 57 90 140 267 150 320 2 8 4 15 5 15 1 0 3 7 5 15 1 8 10 42 18 75 21
81 30 170 31 290 1 225 -45 415 -147 610 -46 88 -261 442 -276 455 -3 3 -24
32 -46 65 -116 177 -428 601 -548 745 -6 8 -30 38 -52 65 -22 28 -42 52 -45
55 -3 3 -37 43 -75 90 -38 47 -74 90 -80 96 -9 9 -77 87 -138 158 -320 368
-963 1018 -1357 1372 -30 27 -64 58 -75 69 -11 11 -52 47 -90 80 -39 33 -74
65 -80 71 -5 6 -62 55 -125 110 -63 54 -117 101 -120 104 -3 3 -61 52 -130
110 -69 57 -127 107 -130 110 -3 3 -52 44 -110 91 -58 47 -141 114 -185 150
-77 63 -337 267 -405 319 -19 14 -45 34 -59 46 -140 113 -843 624 -860 624 -5
0 -11 4 -13 8 -3 9 -207 147 -408 277 -320 207 -699 468 -970 668 -186 137
-363 270 -376 282 -6 6 -43 35 -82 64 -40 30 -72 58 -72 61 0 8 6 15 103 122
37 42 76 85 85 95 14 17 61 69 177 197 92 102 166 184 182 202 16 19 126 142
177 197 12 13 55 61 96 107 41 45 86 94 99 109 13 14 51 57 85 95 33 38 81 90
105 115 24 25 51 56 61 68 9 12 52 60 96 108 43 48 88 97 99 109 22 25 154
173 170 190 6 6 48 54 95 106 47 52 87 97 90 100 3 3 43 48 90 100 82 92 133
148 175 194 71 78 166 184 182 202 17 20 147 164 183 204 8 9 49 54 90 100 41
46 89 98 105 116 25 26 113 123 175 194 47 54 215 240 270 300 8 9 31 34 50
56 81 90 196 219 210 234 12 12 101 111 185 204 6 6 46 52 90 101 44 50 97
108 117 130 20 22 45 49 55 61 10 12 53 60 97 107 43 48 87 96 97 108 17 20
122 136 170 190 13 14 58 63 99 109 41 46 80 88 85 94 6 6 46 52 90 101 44 50
91 102 105 116 14 14 42 46 63 70 60 69 199 209 261 263 119 103 297 229 411
290 28 15 57 31 65 36 99 59 314 143 528 206 330 97 609 234 847 416 19 15
150 122 155 128 3 3 39 34 80 69 41 36 80 70 85 75 6 6 41 38 80 71 38 33 83
72 100 87 16 14 39 35 51 45 12 10 50 43 85 73 35 30 86 75 114 100 28 25 82
72 119 105 38 33 74 65 80 70 6 6 42 37 81 70 213 183 322 299 430 460 56 84
155 284 185 375 29 88 27 81 55 205 59 264 48 613 -32 1020 -13 72 -27 139
-29 150 -12 62 -19 93 -55 225 -80 295 -160 454 -288 573 -99 93 -235 127
-369 93z"/>
</g>
</svg>
